<?xml version="1.0" standalone="no"?>
<svg xmlns:xlink="http://www.w3.org/1999/xlink" id="wave" style="transform:rotate(180deg); transition: 0.3s" viewBox="0 0 1440 170" version="1.1" xmlns="http://www.w3.org/2000/svg"><defs><linearGradient id="sw-gradient-0" x1="0" x2="0" y1="1" y2="0"><stop stop-color="rgba(29, 29, 29, 1)" offset="0%"/><stop stop-color="rgba(29, 29, 29, 1)" offset="100%"/></linearGradient></defs><path style="transform:translate(0, 0px); opacity:1" fill="url(#sw-gradient-0)" d="M0,153L15,130.3C30,108,60,62,90,62.3C120,62,150,108,180,119C210,130,240,108,270,104.8C300,102,330,119,360,121.8C390,125,420,113,450,110.5C480,108,510,113,540,99.2C570,85,600,51,630,45.3C660,40,690,62,720,85C750,108,780,130,810,121.8C840,113,870,74,900,48.2C930,23,960,11,990,5.7C1020,0,1050,0,1080,5.7C1110,11,1140,23,1170,34C1200,45,1230,57,1260,53.8C1290,51,1320,34,1350,48.2C1380,62,1410,108,1440,116.2C1470,125,1500,96,1530,96.3C1560,96,1590,125,1620,119C1650,113,1680,74,1710,73.7C1740,74,1770,113,1800,121.8C1830,130,1860,108,1890,93.5C1920,79,1950,74,1980,59.5C2010,45,2040,23,2070,28.3C2100,34,2130,68,2145,85L2160,102L2160,170L2145,170C2130,170,2100,170,2070,170C2040,170,2010,170,1980,170C1950,170,1920,170,1890,170C1860,170,1830,170,1800,170C1770,170,1740,170,1710,170C1680,170,1650,170,1620,170C1590,170,1560,170,1530,170C1500,170,1470,170,1440,170C1410,170,1380,170,1350,170C1320,170,1290,170,1260,170C1230,170,1200,170,1170,170C1140,170,1110,170,1080,170C1050,170,1020,170,990,170C960,170,930,170,900,170C870,170,840,170,810,170C780,170,750,170,720,170C690,170,660,170,630,170C600,170,570,170,540,170C510,170,480,170,450,170C420,170,390,170,360,170C330,170,300,170,270,170C240,170,210,170,180,170C150,170,120,170,90,170C60,170,30,170,15,170L0,170Z"/></svg>