<?xml version="1.0" standalone="no"?>
<svg xmlns:xlink="http://www.w3.org/1999/xlink" id="wave" style="transform:rotate(180deg); transition: 0.3s" viewBox="0 0 1440 100" version="1.1" xmlns="http://www.w3.org/2000/svg"><defs><linearGradient id="sw-gradient-0" x1="0" x2="0" y1="1" y2="0"><stop stop-color="rgba(255, 249, 234, 1)" offset="0%"/><stop stop-color="rgba(255, 249, 234, 1)" offset="100%"/></linearGradient></defs><path style="transform:translate(0, 0px); opacity:1" fill="url(#sw-gradient-0)" d="M0,40L10,48.3C20,57,40,73,60,78.3C80,83,100,77,120,71.7C140,67,160,63,180,66.7C200,70,220,80,240,81.7C260,83,280,77,300,71.7C320,67,340,63,360,51.7C380,40,400,20,420,13.3C440,7,460,13,480,16.7C500,20,520,20,540,26.7C560,33,580,47,600,48.3C620,50,640,40,660,45C680,50,700,70,720,80C740,90,760,90,780,83.3C800,77,820,63,840,50C860,37,880,23,900,18.3C920,13,940,17,960,26.7C980,37,1000,53,1020,51.7C1040,50,1060,30,1080,30C1100,30,1120,50,1140,56.7C1160,63,1180,57,1200,50C1220,43,1240,37,1260,35C1280,33,1300,37,1320,33.3C1340,30,1360,20,1380,13.3C1400,7,1420,3,1430,1.7L1440,0L1440,100L1430,100C1420,100,1400,100,1380,100C1360,100,1340,100,1320,100C1300,100,1280,100,1260,100C1240,100,1220,100,1200,100C1180,100,1160,100,1140,100C1120,100,1100,100,1080,100C1060,100,1040,100,1020,100C1000,100,980,100,960,100C940,100,920,100,900,100C880,100,860,100,840,100C820,100,800,100,780,100C760,100,740,100,720,100C700,100,680,100,660,100C640,100,620,100,600,100C580,100,560,100,540,100C520,100,500,100,480,100C460,100,440,100,420,100C400,100,380,100,360,100C340,100,320,100,300,100C280,100,260,100,240,100C220,100,200,100,180,100C160,100,140,100,120,100C100,100,80,100,60,100C40,100,20,100,10,100L0,100Z"/></svg>